<?xml version="1.0" standalone="no"?><!DOCTYPE svg PUBLIC "-//W3C//DTD SVG 1.1//EN" "http://www.w3.org/Graphics/SVG/1.1/DTD/svg11.dtd"><svg t="1742042933858" class="icon" viewBox="0 0 1024 1024" version="1.1" xmlns="http://www.w3.org/2000/svg" p-id="32440" xmlns:xlink="http://www.w3.org/1999/xlink" width="200" height="200"><path d="M861.964 71.729c-61.391 6.144-121.758 19.505-179.882 39.887-108.252 37.888-196.511 92.94-266.387 168.765-10.045 10.971-22.284 14.531-36.717 13.068-7.607-0.829-13.654-1.511-27.21-3.17-14.482-1.804-20.967-2.535-28.867-3.364a363.227 363.227 0 0 0-39.4-2.145c-47.835 0.39-84.845 20.967-111.615 61.586l-28.136 43.008-2.243 3.413a21987.28 21987.28 0 0 1-35.937 54.76c-15.848 23.893-22.87 34.572-31.208 47.786-11.703 18.725-1.61 39.01 19.31 40.473 43.056 3.17 87.43 5.851 145.31 8.972 21.309 1.17 35.45 12.824 37.498 34.621 2.73 28.282 10.435 52.517 23.893 73.484 27.648 43.106 67.438 67.292 121.027 74.118l6.973 0.975c26.722 3.901 36.572 15.75 38.571 42.52l0.39 5.608c4.047 56.467 7.217 96.061 11.02 135.364 1.95 20.528 22.48 30.134 40.57 18.627l23.796-15.02 3.413-2.193c66.219-41.936 97.232-62.026 133.51-87.43 41.155-28.77 58.807-68.12 53.443-118.687-1.121-10.679-1.95-19.163-3.754-38.278-1.804-18.968-2.585-27.355-3.706-37.79a45.495 45.495 0 0 1 15.701-40.668c71.68-63.878 125.367-142.433 162.719-236.154 31.354-78.8 48.567-157.062 51.102-236.203l0.195-6.144a237.47 237.47 0 0 0-3.852-38.619c-26.136-4.73-53.59-4.779-89.527-1.17z m143.458 71.972h-24.625v-25.258l25.697 0.78a687.397 687.397 0 0 1-1.219 24.478c-5.12 76.703-23.113 152.625-53.345 228.547-39.985 100.352-97.768 185.15-175.055 254.245 1.072 10.24 1.901 18.773 3.657 37.303 1.755 18.968 2.584 27.306 3.706 37.79C791.503 770 765.854 827.1 709.486 866.548c-37.157 25.99-68.608 46.421-135.51 88.746l-3.413 2.146-23.747 15.019c-50.274 31.987-113.957 2.194-119.613-56.223-3.9-39.838-7.07-79.774-11.118-136.63-69.827-11.362-123.221-43.789-159.207-99.816a206.946 206.946 0 0 1-30.33-85.139 7183.116 7183.116 0 0 1-136.729-8.484C30.037 581.73-0.975 519.314 30.622 468.943c8.631-13.8 15.8-24.722 31.696-48.615a4148.663 4148.663 0 0 0 35.937-54.76l2.243-3.413a9851.394 9851.394 0 0 1 28.185-43.106c35.986-54.808 89.039-84.212 154.429-84.7 13.897-0.097 28.233 0.683 45.007 2.39 8.436 0.829 15.116 1.658 30.037 3.413 11.118 1.414 16.97 2.097 22.82 2.731 75.29-80.457 169.692-138.825 283.795-178.761a829.733 829.733 0 0 1 192.024-42.57c40.327-4.046 72.266-3.998 103.57 1.659 28.088 5.022 37.401 13.946 41.79 41.203 3.657 22.382 5.12 38.376 4.388 55.199l-1.121 24.088z" fill="#000000" p-id="32441"></path><path d="M822.906 327.192a128.878 128.878 0 0 1-40.18 91.819 134.632 134.632 0 0 1-94.598 36.962c-70.461-0.488-132.291-60.953-130.828-128.976 1.658-76.458 61.927-131.072 137.02-129.901 70.706 1.17 129.464 60.562 128.586 130.145z m-51.395-0.487c0.487-41.838-35.645-78.41-78.02-79.092-47.298-0.78-83.772 32.28-84.845 80.457-0.829 39.595 37.693 77.239 80.018 77.532 21.748 0.292 42.716-7.9 58.222-22.724 15.555-14.823 24.381-35.01 24.625-56.173z m-625.518 363.13c-25.161 24.38-42.325 41.057-59.538 57.88-1.365 1.317-1.073 0.146-0.83 0.829 0.635 1.56 0.147 1.219 2.293 1.317 4.096 0.195 7.558 0.243 15.457 0.292 4.145 0 6.095 0 8.534 0.098 5.46 0.048 7.801 0.146 10.873 0.536a28.77 28.77 0 0 1 25.844 35.206 74.8 74.8 0 0 1-3.072 10.24l-9.752 28.38-1.073 3.218c-9.118 26.429-13.166 38.424-18.14 53.2-1.072 3.217-1.316 2.535-0.097 3.217-0.049-0.048 0.585-0.048 4.389-1.267l85.382-27.648c5.51-1.756 7.655-2.39 10.727-2.975a29.013 29.013 0 0 1 24.186 4.681c7.851 5.608 10.728 12.483 11.898 20.627 0.44 3.023 0.488 5.168 0.683 10.971l0.097 9.313c0 6.68 0.05 9.558 0.244 12.922 0.098 2.438-0.292 1.95 1.512 2.536 0.683 0.244-0.244 0.536 2.34-2l36.572-35.595 1.658-1.61c18.53-18.041 27.453-26.672 38.034-37.059 3.608-3.51 3.755-2.779-1.268-4.486a257.512 257.512 0 0 1-41.155-17.554c-58.855-31.695-99.913-78.994-122.246-140.873-1.658-4.633-0.487-3.804-3.56-3.852l-19.992 19.456z m20.968-69.876c25.21 0.487 42.423 13.507 51.053 37.449 18.091 50.127 50.713 87.771 98.5 113.518 9.996 5.364 20.967 9.996 32.865 13.946 41.106 13.604 51.834 57.929 21.163 87.966-10.63 10.484-19.603 19.164-38.23 37.254l-1.658 1.61-36.376 35.4c-15.75 15.458-35.108 21.358-56.417 13.654a51.054 51.054 0 0 1-35.109-47.397 200.363 200.363 0 0 1-0.146-3.706l-65.683 21.26c-16.237 5.218-30.963 5.364-45.543-2.681-23.21-12.727-32.134-37.303-23.65-62.854 5.023-15.02 9.168-27.16 18.286-53.687l1.122-3.219 2.779-8.045-4.389-0.147c-22.089-1.024-39.497-12.873-47.689-33.158-8.045-20.138-3.072-40.082 12.337-55.15 17.31-16.92 34.475-33.645 59.685-58.026l19.894-19.31c10.24-9.898 23.114-15.506 37.255-14.677z m-3.072 50.37h1.95l0.39-25.16-2.34 25.16z" fill="#000000" p-id="32442"></path></svg>